<?xml version="1.0" encoding="UTF-8"?>
<svg id="Layer_1" data-name="Layer 1" xmlns="http://www.w3.org/2000/svg" xmlns:xlink="http://www.w3.org/1999/xlink" viewBox="0 0 610.8 520.1">
  <defs>
    <style>
      .cls-1 {
        fill: #616773;
      }

      .cls-2 {
        fill: #fed0ca;
      }

      .cls-3, .cls-4, .cls-5, .cls-6, .cls-7, .cls-8, .cls-9, .cls-10, .cls-11, .cls-12, .cls-13, .cls-14, .cls-15, .cls-16, .cls-17 {
        fill: none;
      }

      .cls-3, .cls-4, .cls-5, .cls-6, .cls-7, .cls-8, .cls-10, .cls-11, .cls-12, .cls-13, .cls-15, .cls-17 {
        stroke-linecap: round;
      }

      .cls-3, .cls-4, .cls-5, .cls-6, .cls-7, .cls-9, .cls-10, .cls-11, .cls-12, .cls-13, .cls-15, .cls-17 {
        stroke-miterlimit: 10;
      }

      .cls-3, .cls-6, .cls-10 {
        stroke-width: 4px;
      }

      .cls-3, .cls-7, .cls-12 {
        stroke: #e9f6ff;
      }

      .cls-18 {
        fill: #fff;
      }

      .cls-4, .cls-5, .cls-6, .cls-8, .cls-11 {
        stroke: #374151;
      }

      .cls-4, .cls-15 {
        stroke-width: 1.5px;
      }

      .cls-5 {
        stroke-dasharray: 0 6;
      }

      .cls-5, .cls-7, .cls-11, .cls-17 {
        stroke-width: 2px;
      }

      .cls-19 {
        fill: #129ab3;
        opacity: .6;
      }

      .cls-8 {
        stroke-linejoin: round;
        stroke-width: 1.67px;
      }

      .cls-9, .cls-13 {
        stroke: #f5f9fd;
        stroke-width: 3px;
      }

      .cls-20 {
        fill: #e03585;
      }

      .cls-21 {
        fill: #fa0;
        isolation: isolate;
        opacity: .3;
      }

      .cls-10 {
        stroke: #03236d;
      }

      .cls-22 {
        fill: #4eb9d0;
      }

      .cls-23 {
        fill: #d8dad9;
      }

      .cls-24 {
        fill: #ffcb48;
      }

      .cls-25 {
        fill: #374151;
      }

      .cls-14 {
        stroke: #dd619d;
        stroke-miterlimit: 10;
        stroke-width: 4px;
      }

      .cls-26 {
        fill: #dcf1f6;
      }

      .cls-15 {
        stroke: #fff;
      }

      .cls-27 {
        fill: #ffb533;
      }

      .cls-28 {
        fill: url(#linear-gradient);
      }

      .cls-29 {
        fill: #0c5fe5;
      }

      .cls-16 {
        opacity: .2;
      }

      .cls-30 {
        fill: #f7afa0;
      }

      .cls-31 {
        fill: #a4a5a5;
      }

      .cls-32 {
        fill: #f5f9fd;
      }

      .cls-17 {
        stroke: #a4a5a5;
      }

      .cls-33 {
        fill: #e9f6ff;
      }

      .cls-34 {
        fill: #fcfcfc;
      }
    </style>
    <linearGradient id="linear-gradient" x1="190.09" y1="663" x2="315.19" y2="580.17" gradientTransform="translate(0 -322.51)" gradientUnits="userSpaceOnUse">
      <stop offset="0" stop-color="#fff"/>
      <stop offset="1" stop-color="#fff" stop-opacity="0"/>
    </linearGradient>
  </defs>
  <path class="cls-26" d="m351.8,85.2c-137.4-20.4-129.1,77-121,141.2,6.4,51.1-116.4,56.8-175.6,112.8s22.3,115.7,210,140.8c143.6,19.2,237.1-36.6,273-89.6,32.8-48.3,13.5-106.5-2.2-144.3-19.5-46.8-44.2-140-184.2-160.9Z"/>
  <line class="cls-11" x1="509.6" y1="403.8" x2="95.1" y2="403.8"/>
  <path class="cls-1" d="m426.1,247.9c28.5,5.2,79.1,14.1,52.8,84.1-30,80-40.8,97.8-40.8,97.8l-43.9-2.9-28.7-151.3c0,.1,26.7-33.8,60.6-27.7Z"/>
  <path class="cls-25" d="m403.4,246.1c21.3,0,83.6,2.7,54,75.7-32.1,79.2-47.2,110.5-47.2,110.5l-34.8-1.5-31.2-164.4s24.7-20.3,59.2-20.3Z"/>
  <path class="cls-27" d="m356.6,432.3l53.4-32.2,25-59.2-.9-71.5-29.2-9.1h-39.9s-23.1,7.1-33,9.6-16.4,8.7-23.2,20l-86.4,142.5h134.2v-.1Z"/>
  <path class="cls-28" d="m132.8,271c7.1-3.4,151-83.6,151-83.6l44.9,28s76.9,88.7,76.1,90.3-114.5,62.4-114.5,62.4c0,0-107.8-2-109-2.4s-48.5-94.7-48.5-94.7Z"/>
  <polygon class="cls-21" points="318.1 317.4 230.7 431.7 256.2 432.3 318.1 317.4"/>
  <path class="cls-21" d="m421.3,295.1c-3.2,4.8-23.4,94.9-60.1,111.7l51.9-12.9,26.1-63.6-17.9-35.2Z"/>
  <path class="cls-24" d="m420.9,313.9c-.3-11-.5-48.8,13.2-44.6,11.7,3.6,26.2,12.6,31.5,29.4,9.3,29.6,23.1,79.6,28.5,94.2,8.5,22.9-3.3,39.4-27.9,39.4h-125l-5.4-21.3c31.5-11.7,74.5-29.7,105.1-27.3-8.1-11.4-17.7-32.4-18.8-54.3l-1.2-15.5Z"/>
  <path class="cls-27" d="m495.3,396.9c-6.3,2.6-26,16.5-23.5,34.8v.3c19.4-2.3,28.7-16.1,23.5-35.1Z"/>
  <polygon class="cls-30" points="351.8 232.3 368.9 238.3 360.9 271.5 383.5 275.7 408.2 271.4 416.6 174.1 363.5 166.1 351.8 232.3"/>
  <line class="cls-7" x1="256.2" y1="432.3" x2="318.1" y2="317.4"/>
  <path class="cls-25" d="m353,176.6c-2-.7-2.4,6.6,1.3,12,2.3,3.3-1.3,4.3-2.5,9.3s3.5,15,3.5,15l6.6-37.3-8.9,1Z"/>
  <path class="cls-2" d="m335.8,414s-42.3,4.2-45.6,18.3h51l-5.4-18.3Z"/>
  <path class="cls-25" d="m411.3,238.4c2.5-9.6,3.1-17.5,10.9-18.7,8.6-1.3,16.2-11.4,9-19.4s11.6-7.4,13.6-20.6c1.7-11-5-19.6-17.4-20.6-5.7-.5-9.3-1.9-11.8-3.9-5.6-4.4-8.4-16.5-19.6-18s-15.5,4-22.9,6.8c-14.2,5.4-22-3.7-30.5,4-6,5.4-8.2,21.3,8.4,27.8,17.2,6.7,43.8,1.8,48.4.8-2.6,11.1,6.9,19.5,12.1,19.6l-.2,42.2Z"/>
  <path class="cls-32" d="m417.4,194.2c-10.3-1.9-13.2,9.5-13,14.3s4.5,9.9,8.6,9.8,11.5-3,12-11.1c.5-6.5-1.6-11.9-7.6-13Z"/>
  <path class="cls-9" d="m389.6,231.1s12.2-.6,14.8-2.4,7-13,7-13"/>
  <path class="cls-13" d="m417.4,194.2s4.6-11,4.6-20.4c0-6.4-.3-18.2-8.1-20.4"/>
  <polyline class="cls-8" points="373.7 196.7 370.4 208.4 374.6 208.9"/>
  <path class="cls-25" d="m392.2,186.1s-7-1.5-7.5,1.4c0,0-.2,2,5.9,3.2s7.8,1,8.6-.8-3.7-3.4-7-3.8Z"/>
  <path class="cls-25" d="m365,183.2s5.9.2,6,3c0,0,0,1.9-5.1,1.6s-6.8-1.1-7-2.7c-.3-1.7,3.3-2.2,6.1-1.9Z"/>
  <path class="cls-18" d="m369.1,215.3l19.9,1.9s-.6,7-12.2,5.8c-4.2,0-7.6-3.4-7.7-7.7Z"/>
  <path class="cls-25" d="m380.5,226.4h5.9c1.8,0,3.3,1.5,3.3,3.3v2.9c0,1.8-1.5,3.3-3.3,3.3h-5.9c-1.8,0-3.3-1.5-3.3-3.3v-2.9c.1-1.8,1.5-3.3,3.3-3.3Z"/>
  <polygon class="cls-30" points="368.9 238.3 379 241.5 373.2 274.4 361.1 270.3 368.9 238.3"/>
  <path class="cls-12" d="m364.2,237.6c1,.3,23.4,6.2,23.4,6.2"/>
  <path class="cls-6" d="m437.2,382.2c13.1,2.2,26.2,8.2,26.2,8.2"/>
  <path class="cls-24" d="m416.3,263.8s-11.5,24.3-42.7,16.3c-8.5-2-15.2-8.7-17.2-17.3l7.4-3.8s-.1,12.1,18,13.4,27.5-14.8,27.5-14.8l7,6.2Z"/>
  <path class="cls-21" d="m494,392.9c-4.4-11.8-14.3-46.9-22.8-75.5,0,0,11.6,91.9-3.6,99.7-13,6.6-101.3,8.9-127.9,9.5l1.5,5.7h124.9c24.7,0,36.4-16.5,27.9-39.4Z"/>
  <circle class="cls-25" cx="387.4" cy="200.1" r="2.1"/>
  <circle class="cls-25" cx="365.5" cy="197.5" r="2.1"/>
  <path class="cls-4" d="m333.9,155.9c0,.6-3.2,19,26.2,22.6"/>
  <path class="cls-4" d="m448.1,168.4c.3,5-.2,13.7-9,19"/>
  <path class="cls-25" d="m290.6,375.8l-7.3,3.8c-.4.3-.9.4-1.4.4l-137-7.1c-1.1-.1-2-.8-2.2-1.8l-22-92.5c-.2-1,.2-2,1.1-2.6l5.8-4.7c.4-.2.8-.4,1.3-.4h149.7c1.2,0,2.3.9,2.4,2.1l10.8,100.4c.1,1.1-.4,2-1.2,2.4Z"/>
  <path class="cls-1" d="m281.4,380h-147.7c-1.2,0-2.3-.9-2.4-2.1l-10.7-99.3c-.1-1.3.8-2.5,2.1-2.6h147.9c1.2,0,2.3.9,2.4,2.1l10.7,99.3c.1,1.3-.8,2.5-2.2,2.6t-.1,0Z"/>
  <path class="cls-34" d="m248.9,431.7h-79.5c-3.9.1-7.5-1.7-9.9-4.7-2.3-3-3-7-1.9-10.6l21.7-71.5c.5-1.7,2.1-2.9,3.9-2.9h35.7l-13.1,76.8c-.6,3.2,1.5,6.3,4.7,6.9.4.1.7.1,1.1.1h37.4v5.9h-.1Z"/>
  <path class="cls-25" d="m248.9,431.7h-37.4c-6.6,0-11.9-5.3-11.9-11.9,0-.7.1-1.3.2-2l13.1-75.9h5.9l-13.1,76.9c-.5,3.2,1.6,6.3,4.8,6.8.3.1.7.1,1,.1h37.4v6Z"/>
  <path class="cls-15" d="m129.9,283.2l133.7-.4c1.2,0,2.3.9,2.4,2.1l9,84.6"/>
  <line class="cls-11" x1="530.6" y1="442.5" x2="65.2" y2="442.5"/>
  <ellipse class="cls-14" cx="524.11" cy="405.64" rx="11" ry="8" transform="translate(-64.33 710.54) rotate(-65.13)"/>
  <path class="cls-17" d="m502.8,363.3c0-5.8-4.8-5.8-4.8-11.5s4.8-5.8,4.8-11.5"/>
  <path class="cls-17" d="m505.7,374.8c0-5.8,4.8-5.8,4.8-11.5s-4.8-5.8-4.8-11.5"/>
  <line class="cls-11" x1="596" y1="432.3" x2="8.6" y2="432.3"/>
  <g>
    <path class="cls-23" d="m207.7,318.2l-6.2,7c-.4.4-.9.6-1.4.6-.6,0-1.1-.2-1.6-.6l-13.3-11.9c-.4-.4-.7-.9-.8-1.5l1.6,14.2c.2,1.2,1.2,2.1,2.4,2.1h23.8c1,0,1.9-.8,1.9-1.8v-.3l-1.5-13.3-4.9,5.5Z"/>
    <path class="cls-31" d="m209,307.8l-10.5-9.5c-.4-.4-1-.6-1.6-.6h0c-.5,0-1.1.2-1.4.6l-10.6,11.9c-.4.4-.5,1-.4,1.5h0c.1.6.4,1.1.8,1.5l5.5,4.9c-1.2-1-1.4-2.8-.5-4h0c1.1-1.1,2.9-1.1,4,0h0l5,4.5,9.7-10.8h0Z"/>
    <path class="cls-18" d="m211.7,310.3l-2.7-2.5h0l-9.8,11-5-4.5c-1.1-1.1-2.9-1.1-4,0h0c-1,1.2-.8,3,.4,4h0l7.8,7c.4.4,1,.6,1.6.6.5,0,1.1-.2,1.4-.6l6.2-7h0l4.9-5.6-.1-.9c.1-.5-.2-1.1-.7-1.5Z"/>
  </g>
  <path class="cls-6" d="m358.9,334.7s49.3-36,57.4-71"/>
  <path class="cls-32" d="m371.4,333.7l-7.1,28.2c-.3,1.1-1.4,1.8-2.5,1.5l-16.6-4.2c-1.1-.3-1.8-1.4-1.5-2.5l7.1-28.2c.3-1.1,1.4-1.8,2.5-1.5l16.6,4.2c1.1.3,1.8,1.4,1.5,2.5Z"/>
  <path class="cls-6" d="m356.4,262.8s-12.2,24.2,2.4,71.9"/>
  <path class="cls-5" d="m519.6,159.7c-55.9-13-62.2-101-157.1-104.6s-89.5,86-33.1,78.2c51.3-7.1,17.7-51.7-24.8-20.3-44,32.4-91.9,102.3-112.6,158.7"/>
  <path class="cls-29" d="m224.1,133.8c19.1-13.7,45.6-9.3,59.3,9.8,11.6,16.2,10.4,38.4-3,53.2l.1,9.1c0,1.6-1.3,2.9-2.9,2.9-.2,0-.5,0-.7-.1l-9.6-2.2c-21.2,10.2-46.6,1.3-56.8-19.8-8.9-18.5-3.2-40.9,13.6-52.9h0Z"/>
  <path class="cls-22" d="m224.1,133.8c19.1-13.7,45.6-9.3,59.3,9.8,11.6,16.2,10.4,38.4-3,53.2l.1,9.1c0,1.6-1.3,2.9-2.9,2.9-.2,0-.5,0-.7-.1l-9.6-2.2c-21.2,10.2-46.6,1.3-56.8-19.8-8.9-18.5-3.2-40.9,13.6-52.9h0Z"/>
  <path class="cls-22" d="m433.1,37.9c22.5,6.8,35.2,30.6,28.3,53-5.8,19.1-24.1,31.6-44,30l-7.2,5.6c-1.3,1-3.1.8-4.1-.5-.1-.2-.3-.4-.4-.6l-4.1-8.9c-21-10.5-29.5-36.1-19-57.1,9.5-18.3,30.7-27.5,50.5-21.5h0Z"/>
  <path class="cls-19" d="m400.5,67.5h35.4c3,0,5.4,2.4,5.4,5.4v18.2c0,3-2.4,5.4-5.4,5.4h-35.4c-3,0-5.4-2.4-5.4-5.4v-18.2c.1-3,2.5-5.4,5.4-5.4Z"/>
  <g>
    <path class="cls-23" d="m400.4,64.9h40.8c1.5,0,2.7,1.2,2.7,2.7v23.6c0,1.5-1.2,2.7-2.7,2.7h-40.8c-1.5,0-2.7-1.2-2.7-2.7v-23.6c0-1.5,1.2-2.7,2.7-2.7Z"/>
    <path class="cls-31" d="m400.4,93.9h40.8c.7,0,1.3-.3,1.8-.7l-22.2-19.4-3.3,3.2-19,16c.5.5,1.2.9,1.9.9Z"/>
    <path class="cls-32" d="m441.2,64.9h-40.8c-.5,0-1,.2-1.5.4l20.4,17.4c1,.9,2.5.9,3.5,0l19.9-17.3c-.4-.3-1-.5-1.5-.5Z"/>
  </g>
  <path class="cls-19" d="m247.7,148.4c-7.6-.3-13.9,5.6-14.2,13.2v.5c-.1,1.5,1,2.7,2.5,2.8s2.7-1,2.8-2.5v-.3c0-4.7,3.8-8.4,8.5-8.4h.3c4.4.2,7.8,3.7,8.1,8.1.2,4.4-3,8.1-7.3,8.7-2.1.3-3.7,2.1-3.7,4.2v5c-.1,1.5,1,2.7,2.5,2.8s2.7-1,2.8-2.5v-4.4c7.4-1.5,12.3-8.7,10.8-16.1-1.4-6.2-6.8-10.8-13.1-11.1h0Zm-.5,38.2c-1.9,0-3.5,1.6-3.5,3.5s1.6,3.5,3.5,3.5,3.5-1.6,3.5-3.5h0c0-1.9-1.6-3.5-3.5-3.5Z"/>
  <path class="cls-33" d="m249.7,146.4c-7.6-.3-13.9,5.6-14.2,13.1v.5c-.1,1.5,1,2.7,2.5,2.8s2.7-1,2.8-2.5v-.3c0-4.7,3.8-8.4,8.4-8.4h.3c4.4.2,7.9,3.7,8.1,8.1.2,4.4-3,8.1-7.3,8.7-2.1.3-3.7,2.1-3.7,4.2v5c-.1,1.5,1,2.7,2.5,2.8s2.7-1,2.8-2.5v-4.4c7.4-1.5,12.3-8.7,10.8-16.1-1.4-6.2-6.7-10.7-13-11h0Zm-.6,38.2c-1.9,0-3.5,1.6-3.5,3.5s1.6,3.5,3.5,3.5,3.5-1.6,3.5-3.5h0c.1-1.9-1.5-3.5-3.5-3.5.1,0,0,0,0,0Z"/>
  <path class="cls-22" d="m573,184.8c6.7,22.5-6.1,46.2-28.6,52.9-19.3,5.8-40.1-2.9-49.6-20.7l-8.6-3c-1.5-.5-2.3-2.2-1.8-3.7.1-.2.2-.4.3-.6l5.2-8.3c-2.8-23.3,13.9-44.5,37.2-47.2,20.7-2.5,40.2,10.5,45.9,30.6Z"/>
  <g class="cls-16">
    <line class="cls-10" x1="512.8" y1="188.9" x2="548.4" y2="188.9"/>
    <line class="cls-10" x1="512.8" y1="201" x2="548.4" y2="201"/>
    <line class="cls-10" x1="512.8" y1="213" x2="530.6" y2="213"/>
  </g>
  <line class="cls-3" x1="515" y1="186.3" x2="550.5" y2="186.3"/>
  <line class="cls-3" x1="515" y1="198.3" x2="550.5" y2="198.3"/>
  <line class="cls-3" x1="515" y1="210.4" x2="532.7" y2="210.4"/>
  <path class="cls-11" d="m279.2,106.8s-3.8-43.8,46.1-55.8"/>
  <polygon class="cls-20" points="525.5 382.2 485.9 382.2 491.9 431.7 518.3 431.7 525.5 382.2"/>
</svg>