<svg width="500" height="500" viewBox="0 0 500 500" fill="none" xmlns="http://www.w3.org/2000/svg">
<path d="M141.5 158.12C64.6001 203 60.0001 354.53 169.38 351.63C218.29 350.33 232.58 299.04 276.72 281.04C318.16 264.13 353.89 298.04 395.72 259.64C445.01 214.44 452.09 103.89 378.83 96.5C346.93 93.28 334.63 125.13 306.76 132.18C250.26 146.48 198.64 124.79 141.5 158.12Z" fill="#5385F5"/>
<path opacity="0.9" d="M141.5 158.12C64.6001 203 60.0001 354.53 169.38 351.63C218.29 350.33 232.58 299.04 276.72 281.04C318.16 264.13 353.89 298.04 395.72 259.64C445.01 214.44 452.09 103.89 378.83 96.5C346.93 93.28 334.63 125.13 306.76 132.18C250.26 146.48 198.64 124.79 141.5 158.12Z" fill="#E5ECF8"/>
<path d="M250 427.56C357.083 427.56 443.89 422.492 443.89 416.24C443.89 409.988 357.083 404.92 250 404.92C142.918 404.92 56.1101 409.988 56.1101 416.24C56.1101 422.492 142.918 427.56 250 427.56Z" fill="#E5ECF8"/>
<path d="M48.8601 150.56L276.83 183.38L307.42 214.25L48.8601 150.56Z" fill="#5385F5"/>
<path opacity="0.6" d="M48.8601 150.56L276.83 183.38L307.42 214.25L48.8601 150.56Z" fill="white"/>
<path d="M48.8601 150.56L276.83 183.38L266.25 228.02L48.8601 150.56Z" fill="#5385F5"/>
<path opacity="0.2" d="M48.8601 150.56L276.83 183.38L266.25 228.02L48.8601 150.56Z" fill="black"/>
<path d="M261.57 98.88L274.8 160.88C275.144 162.499 274.832 164.188 273.932 165.578C273.032 166.967 271.618 167.942 270 168.29L151.92 193.49C150.301 193.831 148.613 193.518 147.225 192.619C145.836 191.719 144.86 190.307 144.51 188.69L131.27 126.69C130.929 125.07 131.244 123.381 132.145 121.992C133.046 120.603 134.461 119.628 136.08 119.28L254.16 94.08C255.78 93.7389 257.47 94.0535 258.858 94.9549C260.247 95.8564 261.222 97.2713 261.57 98.89V98.88Z" fill="#5385F5"/>
<path opacity="0.4" d="M261.57 98.88L274.8 160.88C275.144 162.499 274.832 164.188 273.932 165.578C273.032 166.967 271.618 167.942 270 168.29L151.92 193.49C150.301 193.831 148.613 193.518 147.225 192.619C145.836 191.719 144.86 190.307 144.51 188.69L131.27 126.69C130.929 125.07 131.244 123.381 132.145 121.992C133.046 120.603 134.461 119.628 136.08 119.28L254.16 94.08C255.78 93.7389 257.47 94.0535 258.858 94.9549C260.247 95.8564 261.222 97.2713 261.57 98.89V98.88Z" fill="black"/>
<path d="M258.66 94.82L219.21 143.25C215.551 147.74 210.469 150.847 204.805 152.056C199.141 153.265 193.233 152.505 188.06 149.9L132.27 121.8C133.173 120.503 134.535 119.599 136.08 119.27L254.16 94.07C255.701 93.742 257.309 94.01 258.66 94.82V94.82Z" fill="#5385F5"/>
<path d="M48.8601 150.56L236.89 195.25L266.25 228.02L48.8601 150.56Z" fill="#5385F5"/>
<path opacity="0.6" d="M48.8601 150.56L236.89 195.25L266.25 228.02L48.8601 150.56Z" fill="white"/>
<path d="M117.449 193.635L116.944 194.498L137.868 206.755L138.374 205.892L117.449 193.635Z" fill="#5385F5"/>
<path d="M147.612 211.295L147.106 212.158L154.631 216.566L155.136 215.703L147.612 211.295Z" fill="#5385F5"/>
<path d="M48.8601 150.56L236.89 195.25L200.34 239.3L48.8601 150.56Z" fill="#5385F5"/>
<path d="M300.36 255.26C300.107 255.261 299.856 255.213 299.62 255.12L269 243C268.51 242.803 268.118 242.419 267.91 241.934C267.701 241.449 267.693 240.901 267.887 240.41C268.081 239.919 268.462 239.524 268.946 239.312C269.43 239.101 269.978 239.089 270.47 239.28L301.1 251.4C301.533 251.571 301.893 251.888 302.118 252.297C302.342 252.705 302.417 253.179 302.329 253.636C302.241 254.094 301.997 254.507 301.637 254.803C301.278 255.099 300.826 255.261 300.36 255.26V255.26Z" fill="#5385F5"/>
<path opacity="0.3" d="M300.36 255.26C300.107 255.261 299.856 255.213 299.62 255.12L269 243C268.51 242.803 268.118 242.419 267.91 241.934C267.701 241.449 267.693 240.901 267.887 240.41C268.081 239.919 268.462 239.524 268.946 239.312C269.43 239.101 269.978 239.089 270.47 239.28L301.1 251.4C301.533 251.571 301.893 251.888 302.118 252.297C302.342 252.705 302.417 253.179 302.329 253.636C302.241 254.094 301.997 254.507 301.637 254.803C301.278 255.099 300.826 255.261 300.36 255.26V255.26Z" fill="black"/>
<path d="M298.55 237.7C298.299 237.698 298.051 237.647 297.82 237.55L281.37 231C281.124 230.905 280.9 230.762 280.709 230.579C280.519 230.397 280.366 230.178 280.26 229.937C280.155 229.695 280.098 229.435 280.093 229.171C280.088 228.907 280.136 228.645 280.233 228.4C280.33 228.155 280.474 227.931 280.658 227.742C280.842 227.553 281.061 227.402 281.303 227.298C281.546 227.193 281.806 227.138 282.07 227.135C282.334 227.132 282.595 227.181 282.84 227.28L299.29 233.8C299.783 233.994 300.179 234.376 300.391 234.861C300.603 235.347 300.613 235.897 300.42 236.39C300.279 236.773 300.025 237.104 299.69 237.338C299.356 237.572 298.958 237.699 298.55 237.7Z" fill="#5385F5"/>
<path opacity="0.5" d="M298.55 237.7C298.299 237.698 298.051 237.647 297.82 237.55L281.37 231C281.124 230.905 280.9 230.762 280.709 230.579C280.519 230.397 280.366 230.178 280.26 229.937C280.155 229.695 280.098 229.435 280.093 229.171C280.088 228.907 280.136 228.645 280.233 228.4C280.33 228.155 280.474 227.931 280.658 227.742C280.842 227.553 281.061 227.402 281.303 227.298C281.546 227.193 281.806 227.138 282.07 227.135C282.334 227.132 282.595 227.181 282.84 227.28L299.29 233.8C299.783 233.994 300.179 234.376 300.391 234.861C300.603 235.347 300.613 235.897 300.42 236.39C300.279 236.773 300.025 237.104 299.69 237.338C299.356 237.572 298.958 237.699 298.55 237.7Z" fill="white"/>
<path d="M264.16 255C263.91 254.997 263.663 254.95 263.43 254.86L233.56 243C233.314 242.905 233.089 242.762 232.899 242.579C232.709 242.397 232.556 242.178 232.45 241.937C232.345 241.695 232.288 241.435 232.283 241.171C232.278 240.907 232.326 240.645 232.423 240.4C232.52 240.155 232.664 239.931 232.848 239.742C233.032 239.553 233.251 239.402 233.493 239.298C233.736 239.193 233.996 239.138 234.26 239.135C234.524 239.132 234.785 239.181 235.03 239.28L264.9 251.1C265.333 251.271 265.693 251.588 265.918 251.997C266.142 252.405 266.217 252.879 266.129 253.337C266.041 253.794 265.797 254.207 265.437 254.503C265.078 254.8 264.626 254.961 264.16 254.96V255Z" fill="#5385F5"/>
<path opacity="0.3" d="M264.16 255C263.91 254.997 263.663 254.95 263.43 254.86L233.56 243C233.314 242.905 233.089 242.762 232.899 242.579C232.709 242.397 232.556 242.178 232.45 241.937C232.345 241.695 232.288 241.435 232.283 241.171C232.278 240.907 232.326 240.645 232.423 240.4C232.52 240.155 232.664 239.931 232.848 239.742C233.032 239.553 233.251 239.402 233.493 239.298C233.736 239.193 233.996 239.138 234.26 239.135C234.524 239.132 234.785 239.181 235.03 239.28L264.9 251.1C265.333 251.271 265.693 251.588 265.918 251.997C266.142 252.405 266.217 252.879 266.129 253.337C266.041 253.794 265.797 254.207 265.437 254.503C265.078 254.8 264.626 254.961 264.16 254.96V255Z" fill="black"/>
<path d="M372.3 164.82C374.95 169.99 377.38 175.17 379.69 180.47C382 185.77 384.15 191.14 386.03 196.77L386.71 198.9C386.83 199.28 387 199.9 387.1 200.34C387.2 200.78 387.29 201.28 387.34 201.7C387.569 203.313 387.686 204.941 387.69 206.57C387.705 209.575 387.565 212.579 387.27 215.57C386.711 221.36 385.803 227.11 384.55 232.79L379.06 232.18C378.99 226.55 378.94 220.86 378.74 215.31C378.65 212.55 378.49 209.78 378.21 207.18C378.083 205.959 377.883 204.747 377.61 203.55C377.56 203.27 377.48 203.06 377.42 202.83C377.36 202.6 377.3 202.52 377.2 202.22L376.44 200.33C374.35 195.27 372 190.17 369.6 185.09L362.34 169.85L372.3 164.82Z" fill="#E4897B"/>
<path d="M379.14 230.42L376.58 235.21L384.76 237.49C384.76 237.49 386.32 233.64 384.46 230.6L379.14 230.42Z" fill="#E4897B"/>
<path d="M373.45 242.11L380.97 242.71L384.76 237.49L376.58 235.21L373.45 242.11Z" fill="#E4897B"/>
<path d="M337.87 130.26C337.76 130.85 337.35 131.26 336.97 131.18C336.59 131.1 336.38 130.57 336.5 129.99C336.62 129.41 337.02 128.99 337.4 129.07C337.78 129.15 338 129.68 337.87 130.26Z" fill="#263238"/>
<path d="M337.41 131.26C336.354 132.896 335.079 134.38 333.62 135.67C333.96 136.032 334.375 136.316 334.836 136.503C335.297 136.689 335.793 136.774 336.29 136.75L337.41 131.26Z" fill="#DE5753"/>
<path d="M340.65 127.47C340.555 127.468 340.466 127.428 340.4 127.36C340.113 127.031 339.752 126.775 339.347 126.612C338.942 126.448 338.505 126.383 338.07 126.42C337.987 126.421 337.907 126.392 337.843 126.339C337.779 126.286 337.736 126.212 337.722 126.131C337.707 126.049 337.722 125.965 337.764 125.894C337.806 125.822 337.872 125.768 337.95 125.74C338.506 125.67 339.071 125.738 339.594 125.938C340.118 126.139 340.583 126.466 340.95 126.89C341.014 126.955 341.05 127.043 341.05 127.135C341.05 127.227 341.014 127.315 340.95 127.38C340.91 127.417 340.862 127.444 340.81 127.459C340.758 127.475 340.704 127.479 340.65 127.47Z" fill="#263238"/>
<path d="M354.41 138.43C353.36 143.81 352.31 153.65 356.07 157.24C356.07 157.24 354.6 162.69 344.61 162.69C333.61 162.69 339.37 157.24 339.37 157.24C345.37 155.81 345.2 151.36 344.16 147.19L354.41 138.43Z" fill="#E4897B"/>
<path d="M357.58 160.63C358.37 158 359.24 154.99 357.44 154.04C355.44 153.04 344.57 151.94 340.82 153.89C337.07 155.84 338.14 161.19 338.14 161.19L357.58 160.63Z" fill="#263238"/>
<path d="M380.64 410C380.329 410.041 380.014 410.02 379.712 409.938C379.409 409.855 379.127 409.713 378.88 409.52C378.793 409.399 378.746 409.254 378.746 409.105C378.746 408.956 378.793 408.811 378.88 408.69C378.937 408.586 379.016 408.496 379.111 408.425C379.206 408.355 379.314 408.305 379.43 408.28C380.51 408.04 382.53 409.42 382.62 409.48C382.646 409.502 382.666 409.529 382.678 409.561C382.69 409.592 382.694 409.626 382.69 409.66C382.684 409.692 382.669 409.722 382.646 409.745C382.622 409.769 382.592 409.784 382.56 409.79C381.929 409.926 381.286 409.996 380.64 410V410ZM379.72 408.6H379.51C379.442 408.614 379.378 408.643 379.323 408.684C379.268 408.726 379.222 408.779 379.19 408.84C379.03 409.12 379.13 409.24 379.19 409.28C379.5 409.7 381 409.7 382.1 409.52C381.383 409.047 380.57 408.739 379.72 408.62V408.6Z" fill="#5385F5"/>
<path d="M382.52 409.82H382.44C381.68 409.4 380.21 407.82 380.36 406.98C380.385 406.85 380.455 406.733 380.557 406.65C380.659 406.566 380.788 406.52 380.92 406.52C381.052 406.506 381.185 406.518 381.312 406.556C381.439 406.594 381.557 406.656 381.66 406.74C382.51 407.44 382.66 409.56 382.66 409.65C382.664 409.682 382.658 409.714 382.644 409.742C382.63 409.771 382.608 409.794 382.58 409.81C382.561 409.818 382.54 409.821 382.52 409.82ZM381.04 406.82H381C380.77 406.82 380.75 406.96 380.74 407C380.65 407.49 381.59 408.7 382.34 409.27C382.289 408.435 381.99 407.634 381.48 406.97C381.413 406.917 381.335 406.879 381.253 406.857C381.171 406.834 381.084 406.829 381 406.84L381.04 406.82Z" fill="#5385F5"/>
<path d="M336.53 410C335.59 410 334.68 409.87 334.37 409.45C334.292 409.339 334.25 409.206 334.25 409.07C334.25 408.934 334.292 408.801 334.37 408.69C334.431 408.587 334.511 408.498 334.608 408.428C334.704 408.357 334.814 408.307 334.93 408.28C336.14 407.95 338.72 409.41 338.83 409.47C338.859 409.489 338.882 409.516 338.897 409.548C338.911 409.58 338.915 409.616 338.91 409.65C338.904 409.685 338.887 409.717 338.862 409.743C338.837 409.768 338.805 409.784 338.77 409.79C338.031 409.929 337.281 409.999 336.53 410V410ZM335.36 408.58C335.25 408.564 335.139 408.564 335.03 408.58C334.96 408.594 334.893 408.622 334.834 408.664C334.776 408.705 334.726 408.758 334.69 408.82C334.56 409.04 334.61 409.14 334.69 409.2C335.02 409.66 336.88 409.69 338.26 409.5C337.361 409.015 336.376 408.709 335.36 408.6V408.58Z" fill="#5385F5"/>
<path d="M338.75 409.82H338.68C337.79 409.43 336.04 407.82 336.17 407.01C336.17 406.81 336.34 406.57 336.82 406.52C336.998 406.493 337.181 406.506 337.354 406.558C337.527 406.61 337.686 406.699 337.82 406.82C338.76 407.58 338.95 409.56 338.96 409.65C338.964 409.681 338.959 409.712 338.947 409.74C338.935 409.768 338.915 409.792 338.89 409.81C338.869 409.822 338.845 409.828 338.821 409.83C338.797 409.832 338.773 409.828 338.75 409.82V409.82ZM336.96 406.82H336.85C336.54 406.82 336.52 406.98 336.51 407.02C336.43 407.52 337.63 408.77 338.51 409.31C338.424 408.47 338.073 407.679 337.51 407.05C337.367 406.927 337.188 406.853 337 406.84L336.96 406.82Z" fill="#5385F5"/>
<path d="M346.83 409.64H339.48L338.75 392.63H346.1L346.83 409.64Z" fill="#E4897B"/>
<path d="M390.94 409.64H383.59L379.9 392.63H387.24L390.94 409.64Z" fill="#E4897B"/>
<path d="M383.07 408.79H391.32C391.467 408.791 391.61 408.842 391.724 408.935C391.839 409.027 391.918 409.156 391.95 409.3L393.4 415.83C393.433 415.989 393.43 416.153 393.391 416.311C393.351 416.469 393.277 416.615 393.173 416.74C393.07 416.865 392.939 416.965 392.791 417.033C392.643 417.1 392.482 417.133 392.32 417.13C389.44 417.08 388.04 416.91 384.41 416.91C382.18 416.91 377.58 417.15 374.49 417.15C371.4 417.15 371.01 414.15 372.27 413.82C377.93 412.58 380.06 410.87 381.87 409.25C382.199 408.953 382.627 408.789 383.07 408.79V408.79Z" fill="#263238"/>
<path d="M339.53 408.79H347.53C347.677 408.791 347.82 408.842 347.934 408.935C348.049 409.027 348.128 409.156 348.16 409.3L349.61 415.83C349.645 415.988 349.643 416.151 349.606 416.308C349.568 416.465 349.496 416.611 349.394 416.736C349.292 416.861 349.163 416.962 349.017 417.03C348.871 417.098 348.711 417.132 348.55 417.13C345.66 417.08 341.48 416.91 337.84 416.91C333.59 416.91 329.91 417.15 324.92 417.15C321.92 417.15 321.07 414.15 322.33 413.82C328.08 412.56 332.77 412.43 337.74 409.37C338.269 409.01 338.89 408.809 339.53 408.79V408.79Z" fill="#263238"/>
<path d="M336 170.14C329.857 169.664 323.744 168.853 317.69 167.71C314.69 167.13 311.63 166.48 308.59 165.66C305.474 164.863 302.414 163.86 299.43 162.66C298.66 162.34 297.88 161.99 297.11 161.66C296.243 161.233 295.408 160.745 294.61 160.2C293.17 159.25 291.93 158.26 290.7 157.28C288.25 155.28 285.98 153.28 283.7 151.23C279.23 147.09 274.99 142.81 270.9 138.31L274.58 134.2L289.09 144.63C291.48 146.35 293.9 148.04 296.28 149.63C297.46 150.42 298.67 151.16 299.78 151.79C300.244 152.055 300.725 152.289 301.22 152.49C301.81 152.72 302.41 152.95 303.04 153.17C308.445 154.834 313.972 156.071 319.57 156.87C325.28 157.77 331.18 158.51 336.88 159.11L336 170.14Z" fill="#E4897B"/>
<path d="M369.22 158.9C376.11 160.48 383.07 180.61 383.07 180.61L368.9 190.78C368.9 190.78 364.9 181.4 361.04 173.2C357 164.61 362.18 157.29 369.22 158.9Z" fill="#5385F5"/>
<path opacity="0.4" d="M369.22 158.9C376.11 160.48 383.07 180.61 383.07 180.61L368.9 190.78C368.9 190.78 364.9 181.4 361.04 173.2C357 164.61 362.18 157.29 369.22 158.9Z" fill="black"/>
<path d="M365.25 169.9L362.44 176.19C365.35 182.47 368.01 188.69 368.72 190.35C368.62 182.92 367.21 173.7 365.25 169.9Z" fill="#5385F5"/>
<path opacity="0.6" d="M365.25 169.9L362.44 176.19C365.35 182.47 368.01 188.69 368.72 190.35C368.62 182.92 367.21 173.7 365.25 169.9Z" fill="black"/>
<path d="M328.07 159.28C328.07 159.28 320.25 168.11 327.63 222.78H366.92C367.2 216.78 363.41 187.32 369.22 158.9C364.877 158.064 360.484 157.509 356.07 157.24C350.508 156.92 344.932 156.92 339.37 157.24C335.556 157.624 331.778 158.306 328.07 159.28V159.28Z" fill="#5385F5"/>
<path opacity="0.4" d="M328.07 159.28C328.07 159.28 320.25 168.11 327.63 222.78H366.92C367.2 216.78 363.41 187.32 369.22 158.9C364.877 158.064 360.484 157.509 356.07 157.24C350.508 156.92 344.932 156.92 339.37 157.24C335.556 157.624 331.778 158.306 328.07 159.28V159.28Z" fill="black"/>
<path d="M325.16 169.9C324.9 171.97 324.7 174.42 324.57 177.31C328.45 176.145 332.137 174.413 335.51 172.17L325.16 169.9Z" fill="#5385F5"/>
<path opacity="0.6" d="M325.16 169.9C324.9 171.97 324.7 174.42 324.57 177.31C328.45 176.145 332.137 174.413 335.51 172.17L325.16 169.9Z" fill="black"/>
<path d="M342 171C336.74 175.66 316.66 175.19 316.66 175.19L316 155.75C322.781 156.716 329.621 157.21 336.47 157.23C347.66 157 347.74 165.86 342 171Z" fill="#5385F5"/>
<path opacity="0.4" d="M342 171C336.74 175.66 316.66 175.19 316.66 175.19L316 155.75C322.781 156.716 329.621 157.21 336.47 157.23C347.66 157 347.74 165.86 342 171Z" fill="black"/>
<path d="M274.77 134.24L269.77 128.35L264.38 134.35C264.38 134.35 267.7 139.93 272.97 139.05L274.77 134.24Z" fill="#E4897B"/>
<path d="M262.61 121.48L260.67 129.17L264.34 134.31L269.73 128.35L262.61 121.48Z" fill="#E4897B"/>
<path d="M338.75 392.64L339.13 401.4H346.48L346.1 392.64H338.75Z" fill="#CE6F64"/>
<path d="M387.25 392.64H379.9L381.8 401.4H389.15L387.25 392.64Z" fill="#CE6F64"/>
<path d="M343.17 123C336.58 120 334.5 106.67 353.46 110C353.46 110 350.6 113.16 356.4 115.16C362.2 117.16 357.35 129.51 343.17 123Z" fill="#263238"/>
<path d="M357.49 133C355.6 140 354.86 144.26 350.49 147.19C343.95 151.59 335.82 146.54 335.56 139.07C335.33 132.36 338.46 121.97 346.01 120.55C347.676 120.223 349.399 120.329 351.013 120.857C352.627 121.385 354.079 122.318 355.23 123.566C356.381 124.815 357.193 126.337 357.589 127.989C357.985 129.64 357.95 131.365 357.49 133Z" fill="#E4897B"/>
<path d="M353.2 113.5C357.69 116 363.77 117.5 363.2 121.06C362.45 125.41 366.87 122.69 365.84 129.16C365.17 133.39 357.37 146.21 351.84 145.59C343.58 144.59 344.63 132.03 344.6 125.41C344.58 121.5 344.4 108.57 353.2 113.5Z" fill="#263238"/>
<path d="M343.61 119.11C341.61 119.58 338.96 131.11 346.71 132.17C355.62 133.38 343.61 119.11 343.61 119.11Z" fill="#263238"/>
<path d="M343.81 123.2C341.36 123.42 335.81 120.47 336.49 116.03C336.49 116 340 121.22 343.81 123.2Z" fill="#263238"/>
<path d="M347.45 133.09C346.698 134.739 345.422 136.092 343.82 136.94C341.71 138.04 340.52 136.44 341 134.32C341.43 132.42 343.05 129.55 345.22 129.32C347.39 129.09 348.32 131.09 347.45 133.09Z" fill="#E4897B"/>
<path d="M358.45 125C359.944 124.352 361.255 123.342 362.263 122.063C363.272 120.784 363.948 119.275 364.23 117.67C364.23 117.67 367.53 126.84 358.45 125Z" fill="#263238"/>
<path d="M366.79 124.85C366.094 124.383 365.293 124.095 364.459 124.013C363.625 123.931 362.784 124.057 362.01 124.38C362.01 124.38 365.09 120.39 366.79 124.85Z" fill="#263238"/>
<path d="M341.57 222.78C341.57 222.78 349.91 278.92 354.48 299.95C359.48 322.95 378.38 399.71 378.38 399.71H391.83C391.83 399.71 379.38 324.84 376.52 302C373.42 277.25 366.92 222.74 366.92 222.74L341.57 222.78Z" fill="#5385F5"/>
<path opacity="0.5" d="M341.57 222.78C341.57 222.78 349.91 278.92 354.48 299.95C359.48 322.95 378.38 399.71 378.38 399.71H391.83C391.83 399.71 379.38 324.84 376.52 302C373.42 277.25 366.92 222.74 366.92 222.74L341.57 222.78Z" fill="white"/>
<path d="M376.23 394.75C376.17 394.75 377.62 399.92 377.62 399.92H392.76L392.48 395.31L376.23 394.75Z" fill="#5385F5"/>
<path opacity="0.1" d="M376.23 394.75C376.17 394.75 377.62 399.92 377.62 399.92H392.76L392.48 395.31L376.23 394.75Z" fill="black"/>
<path d="M346.84 242.78C356.48 244.67 355.46 280.62 354.3 299.11C351.52 286.04 347.45 260.89 344.67 243.04C345.342 242.709 346.108 242.617 346.84 242.78Z" fill="#5385F5"/>
<path opacity="0.4" d="M346.84 242.78C356.48 244.67 355.46 280.62 354.3 299.11C351.52 286.04 347.45 260.89 344.67 243.04C345.342 242.709 346.108 242.617 346.84 242.78Z" fill="white"/>
<path d="M327.63 222.78C327.63 222.78 326.63 277.7 327.42 300.11C328.25 323.41 336.42 399.71 336.42 399.71H348.86C348.86 399.71 349.32 324.77 349.86 301.89C350.47 276.94 353.48 222.78 353.48 222.78H327.63Z" fill="#5385F5"/>
<path opacity="0.5" d="M327.63 222.78C327.63 222.78 326.63 277.7 327.42 300.11C328.25 323.41 336.42 399.71 336.42 399.71H348.86C348.86 399.71 349.32 324.77 349.86 301.89C350.47 276.94 353.48 222.78 353.48 222.78H327.63Z" fill="white"/>
<path d="M339 390.77C338.97 390.77 338.941 390.759 338.918 390.738C338.896 390.718 338.882 390.69 338.88 390.66C336.68 369.54 331.51 318.44 330.88 300.11C330.21 281.4 330.82 239.42 331.02 227C331.02 226.968 331.033 226.938 331.055 226.915C331.078 226.893 331.108 226.88 331.14 226.88C331.173 226.88 331.204 226.892 331.228 226.914C331.253 226.937 331.267 226.967 331.27 227C331.07 239.42 330.46 281.4 331.13 300.1C331.78 318.43 336.95 369.51 339.13 390.63C339.13 390.664 339.118 390.697 339.096 390.723C339.074 390.748 339.043 390.765 339.01 390.77H339Z" fill="#5385F5"/>
<path opacity="0.4" d="M339 390.77C338.97 390.77 338.941 390.759 338.918 390.738C338.896 390.718 338.882 390.69 338.88 390.66C336.68 369.54 331.51 318.44 330.88 300.11C330.21 281.4 330.82 239.42 331.02 227C331.02 226.968 331.033 226.938 331.055 226.915C331.078 226.893 331.108 226.88 331.14 226.88C331.173 226.88 331.204 226.892 331.228 226.914C331.253 226.937 331.267 226.967 331.27 227C331.07 239.42 330.46 281.4 331.13 300.1C331.78 318.43 336.95 369.51 339.13 390.63C339.13 390.664 339.118 390.697 339.096 390.723C339.074 390.748 339.043 390.765 339.01 390.77H339Z" fill="white"/>
<path d="M334 394.75C333.95 394.75 334.71 399.92 334.71 399.92H349.84L350.25 395.31L334 394.75Z" fill="#5385F5"/>
<path opacity="0.1" d="M334 394.75C333.95 394.75 334.71 399.92 334.71 399.92H349.84L350.25 395.31L334 394.75Z" fill="black"/>
</svg>
